<svg width="320" height="58" viewBox="0 0 320 58" fill="none" xmlns="http://www.w3.org/2000/svg">
<g clip-path="url(#clip0_674_4001)">
<path d="M235.928 29.9918V4H247.483V31.2444C247.483 40.545 250.211 43.8436 255.531 43.8436C260.851 43.8436 263.707 40.5507 263.707 31.2444V19.4783H274.872V29.9918C274.872 46.547 268.38 54 255.531 54C242.682 54 235.928 46.547 235.928 29.9918Z" fill="black"/>
<path d="M274.721 9.4126C274.721 12.4051 272.335 14.8252 269.395 14.8252C266.456 14.8252 264.069 12.3995 264.069 9.4126C264.069 6.42575 266.456 4 269.395 4C272.335 4 274.721 6.42575 274.721 9.4126Z" fill="#0078B3"/>
<path d="M203.849 33.4321V53.0762H193.643V4H212.844C223.374 4 229.04 9.89436 229.04 17.472C229.04 24.0578 225.515 27.6228 222.024 29.085C224.417 29.9805 230.038 32.5139 230.038 41.2931V43.7189C230.038 47.0175 230.066 50.7751 230.73 53.0762H220.836C219.988 50.9395 219.827 47.2668 219.827 42.0583V41.3385C219.827 35.9712 218.494 33.4321 210.708 33.4321H203.843H203.849ZM203.849 24.9873H210.586C216.302 24.9873 218.511 22.7769 218.511 18.6735C218.511 14.5702 215.945 12.4448 210.837 12.4448H203.849V24.9873Z" fill="black"/>
<path d="M291.268 43.1805V32.7577H307.431V22.8619H291.268V13.7597H310.286V4H284.95C282.111 4 279.791 6.30673 279.674 9.16323L279.651 9.18023V53.0762H311V43.1805H291.268Z" fill="black"/>
<path d="M160.654 4H155.853C153.209 4 151.051 6.19905 151.051 8.87985C151.051 11.5606 153.215 13.7597 155.853 13.7597H160.654C160.654 13.7597 160.66 13.7597 160.666 13.7597H164.09V53.0762H175.707V13.7597H188.818V4H160.649H160.654Z" fill="black"/>
<path d="M10.7942 25.2593C11.0898 25.2593 11.324 25.3274 11.4969 25.4634C11.6754 25.5994 11.865 25.8431 12.0825 26.1888L22.4335 45.5155L32.6283 26.1888C32.8123 25.8375 33.0019 25.5994 33.1916 25.4634C33.3756 25.3274 33.621 25.2593 33.911 25.2593H33.9946C34.8256 25.2593 35.2383 25.8431 35.2383 27.0107V51.2229C35.2383 51.4722 35.1435 51.6423 34.9595 51.7443C34.7699 51.8406 34.5691 51.8916 34.3572 51.8916C34.1173 51.8916 33.911 51.8406 33.7381 51.7443C33.5652 51.6423 33.476 51.4722 33.476 51.2229V27.9061C33.1023 28.6769 32.7565 29.3911 32.4331 30.0485C32.1096 30.706 31.7527 31.4201 31.3511 32.1909L23.4819 46.8644C23.2421 47.2838 22.8796 47.4992 22.4 47.4992C21.8925 47.4992 21.53 47.2895 21.3181 46.8644L13.4098 32.1909C13.0083 31.4258 12.6402 30.706 12.3056 30.0485C11.971 29.3911 11.614 28.6769 11.2459 27.9061V51.2229C11.2459 51.4722 11.1567 51.6423 10.9838 51.7443C10.8054 51.8406 10.599 51.8916 10.3592 51.8916C10.1473 51.8916 9.9465 51.8406 9.75688 51.7443C9.57284 51.6423 9.47803 51.4722 9.47803 51.2229V27.0107C9.47803 25.8431 9.89073 25.2593 10.7217 25.2593H10.7998H10.7942Z" fill="black"/>
<path d="M50.1961 25.1855C50.7315 25.1855 51.1052 25.4122 51.3171 25.8543L61.7127 50.809C61.8187 51.0584 61.8187 51.2681 61.7127 51.4438C61.6067 51.6195 61.4338 51.7441 61.1885 51.8178C60.6029 52.0162 60.2013 51.8802 59.9894 51.4098L56.6599 43.288H43.6152L40.2467 51.4098C40.0292 51.8802 39.6277 52.0162 39.0421 51.8178C38.5067 51.6478 38.3449 51.3077 38.5624 50.809L49.0751 25.8543C49.2592 25.4066 49.6384 25.1855 50.1961 25.1855ZM50.1961 27.0842C49.8782 28.0534 49.5157 29.0452 49.1142 30.0654C48.7126 31.0856 48.2665 32.1737 47.7868 33.3413L44.2566 41.7974H56.052L52.6444 33.3413C52.1871 32.2474 51.7465 31.1706 51.3171 30.0994C50.8877 29.0339 50.5196 28.025 50.1961 27.0842Z" fill="black"/>
<path d="M73.787 25.299C77.7188 25.299 80.6523 26.3192 82.5931 28.3539C84.5339 30.3886 85.5043 33.2054 85.5043 36.8044V40.2673C85.5043 42.0583 85.2366 43.6622 84.7012 45.0905C84.1658 46.5187 83.3962 47.7316 82.3923 48.7234C81.3885 49.7153 80.1671 50.4747 78.7227 50.9961C77.2782 51.5176 75.633 51.7783 73.787 51.7783H67.4069C66.5257 51.7783 65.9066 51.6253 65.5609 51.3135C65.2095 51.0018 65.0366 50.4521 65.0366 49.6529V27.4187C65.0366 26.6253 65.2095 26.0755 65.5609 25.7638C65.9066 25.4521 66.5257 25.299 67.4069 25.299H73.787ZM66.8826 50.214H73.6643C76.8209 50.214 79.2748 49.3355 81.026 47.5842C82.7772 45.8329 83.6527 43.3958 83.6527 40.2673V36.9914C83.6527 35.3988 83.4576 33.9762 83.0672 32.7293C82.6823 31.4768 82.0856 30.4112 81.2825 29.5441C80.4794 28.6769 79.4421 28.0082 78.1705 27.5548C76.899 27.0957 75.382 26.8633 73.6197 26.8633H66.877V50.214H66.8826Z" fill="black"/>
<path d="M106.53 25.299C106.77 25.299 106.942 25.3727 107.054 25.5257C107.16 25.6731 107.216 25.8601 107.216 26.0812C107.216 26.3022 107.165 26.4892 107.054 26.6366C106.948 26.7896 106.775 26.8633 106.53 26.8633H92.0071V37.4051H105.732C105.944 37.4051 106.106 37.4788 106.212 37.6262C106.318 37.7792 106.374 37.9492 106.374 38.1476C106.374 38.3743 106.323 38.5613 106.212 38.7087C106.106 38.856 105.944 38.9297 105.732 38.9297H92.0071V50.214H106.814C107.054 50.214 107.227 50.2877 107.338 50.435C107.444 50.5881 107.5 50.7694 107.5 50.9961C107.5 51.2229 107.45 51.4042 107.338 51.5516C107.232 51.6989 107.06 51.7783 106.814 51.7783H92.5314C91.6502 51.7783 91.0311 51.6253 90.6854 51.3135C90.334 51.0018 90.1611 50.4521 90.1611 49.6529V27.4187C90.1611 26.6253 90.334 26.0755 90.6854 25.7638C91.0311 25.4521 91.6502 25.299 92.5314 25.299H106.535H106.53Z" fill="black"/>
<path d="M123.378 25.1855C123.645 25.1855 123.874 25.2365 124.058 25.3329C124.242 25.4349 124.337 25.6106 124.337 25.8543V51.2171C124.337 51.4664 124.242 51.6365 124.058 51.7385C123.874 51.8348 123.645 51.8858 123.378 51.8858C123.166 51.8858 122.965 51.8348 122.775 51.7385C122.591 51.6365 122.497 51.4664 122.497 51.2171V25.8543C122.497 25.6106 122.591 25.4349 122.775 25.3329C122.959 25.2365 123.166 25.1855 123.378 25.1855Z" fill="black"/>
<path d="M149.138 25.1857C149.378 25.1857 149.59 25.2367 149.779 25.333C149.969 25.435 150.058 25.6107 150.058 25.8545V49.8399C150.058 50.5597 149.919 51.0698 149.634 51.3645C149.356 51.6593 148.976 51.8123 148.491 51.8123C148.173 51.8123 147.906 51.7443 147.694 51.6083C147.476 51.4722 147.236 51.2002 146.969 50.8034L133.126 29.3174C132.942 29.0453 132.747 28.7166 132.546 28.3312C132.346 27.9458 132.167 27.5661 132.005 27.192V51.2172C132.005 51.4666 131.911 51.6366 131.727 51.7386C131.537 51.835 131.325 51.886 131.085 51.886C130.873 51.886 130.673 51.835 130.483 51.7386C130.299 51.6366 130.204 51.4666 130.204 51.2172V27.2317C130.204 26.5119 130.344 26.0018 130.628 25.7014C130.907 25.4067 131.292 25.2537 131.771 25.2537C132.089 25.2537 132.357 25.3217 132.574 25.4577C132.786 25.5937 133.026 25.8658 133.294 26.2625L147.136 47.7486C147.326 48.0206 147.521 48.3494 147.722 48.7348C147.922 49.1202 148.101 49.4999 148.263 49.874V25.8488C148.263 25.6051 148.352 25.4294 148.541 25.3274C148.725 25.231 148.926 25.18 149.144 25.18L149.138 25.1857Z" fill="black"/>
<path d="M129.038 8.73249H8.84771C8.37924 8.73249 8 9.11789 8 9.59397C8 10.0701 8.37924 10.4555 8.84771 10.4555H144.409V8.73249H129.038Z" fill="black"/>
</g>
<defs>
<clipPath id="clip0_674_4001">
<rect width="303" height="50" fill="white" transform="translate(8 4)"/>
</clipPath>
</defs>
</svg>
